<svg xmlns="http://www.w3.org/2000/svg" viewBox="0 0 626.92 462.41"><defs><style>.cls-1 {
  fill: #9f9;
}

</style></defs><g id="Calque_2" data-name="Calque 2"><g id="Layer_1" data-name="Layer 1"><path class="cls-1" d="M518,300.12c14.44-5.56,48.19-20.85,72.25-56.69C621,197.63,622.88,137.64,599.13,90a151,151,0,0,0-35.78-46.17c-19.48-17.08-43-28.74-68.15-35.14-4.45-1.13-9.08-2.2-13.9-3.17a284.36,284.36,0,0,0-50-5.56H203.61V51.13h52v51.13h51.13v51.13H255.66V102.26h-52V206.75h52v51.13h-52v100h52v51.13h-52v53.36H332.2V322.35H389l93.07,140.06H626.92ZM435.73,153.39v51.14H333.47V153.39H384.6V102.26h51.13Z"></path><rect class="cls-1" x="153.39" y="153.39" width="51.13" height="53.35"></rect><rect class="cls-1" x="153.39" y="306.79" width="51.13" height="51.13"></rect><rect class="cls-1" x="102.26" y="357.92" width="51.13" height="51.13"></rect><rect class="cls-1" x="102.26" y="206.75" width="51.13" height="51.13"></rect><rect class="cls-1" x="102.26" y="102.26" width="51.13" height="51.13"></rect><rect class="cls-1" x="102.26" width="51.13" height="51.13"></rect><rect class="cls-1" x="51.13" y="51.13" width="51.13" height="51.13"></rect><rect class="cls-1" x="51.13" y="282.34" width="51.13" height="51.13"></rect><rect class="cls-1" y="231.2" width="51.13" height="51.13"></rect><rect class="cls-1" x="51.13" y="153.39" width="51.13" height="53.35"></rect><rect class="cls-1" x="51.13" y="409.05" width="51.13" height="51.13"></rect><rect class="cls-1" y="357.92" width="51.13" height="51.13"></rect></g></g></svg>